font.ufo
<glyph name="X" format="1">
	<unicode hex="0058"/>
	<advance width="637"/>
	<outline>
		<contour>
			<point x="15" y="0" type="line"/>
			<point x="243" y="0" type="line"/>
			<point x="243" y="20" type="line"/>
			<point x="123" y="27" type="line"/>
			<point x="109" y="27" type="line"/>
			<point x="15" y="20" type="line"/>
		</contour>
		<contour>
			<point x="28" y="657" type="line"/>
			<point x="125" y="650" type="line"/>
			<point x="139" y="650" type="line"/>
			<point x="256" y="657" type="line"/>
			<point x="256" y="677" type="line"/>
			<point x="28" y="677" type="line"/>
		</contour>
		<contour>
			<point x="84" y="0" type="line"/>
			<point x="114" y="0" type="line"/>
			<point x="312" y="328" type="line"/>
			<point x="300" y="349" type="line"/>
		</contour>
		<contour>
			<point x="504" y="0" type="line"/>
			<point x="536" y="0" type="line"/>
			<point x="132" y="677" type="line"/>
			<point x="100" y="677" type="line"/>
		</contour>
		<contour>
			<point x="313" y="362" type="line"/>
			<point x="324" y="342" type="line"/>
			<point x="528" y="677" type="line"/>
			<point x="499" y="677" type="line"/>
		</contour>
		<contour>
			<point x="384" y="0" type="line"/>
			<point x="612" y="0" type="line"/>
			<point x="612" y="20" type="line"/>
			<point x="512" y="27" type="line"/>
			<point x="498" y="27" type="line"/>
			<point x="384" y="20" type="line"/>
		</contour>
		<contour>
			<point x="377" y="657" type="line"/>
			<point x="494" y="650" type="line"/>
			<point x="508" y="650" type="line"/>
			<point x="605" y="657" type="line"/>
			<point x="605" y="677" type="line"/>
			<point x="377" y="677" type="line"/>
		</contour>
	</outline>
</glyph>
<glyph name="grave" format="1">
	<unicode hex="0060"/>
	<advance width="400"/>
	<outline>
		<contour>
			<point x="257" y="572" type="line"/>
			<point x="221" y="621"/>
			<point x="184" y="671"/>
			<point x="156" y="707" type="curve" smooth="yes"/>
			<point x="138" y="730"/>
			<point x="132" y="738"/>
			<point x="122" y="738" type="curve" smooth="yes"/>
			<point x="113" y="738"/>
			<point x="105" y="732"/>
			<point x="105" y="721" type="curve" smooth="yes"/>
			<point x="105" y="711"/>
			<point x="114" y="702"/>
			<point x="134" y="681" type="curve" smooth="yes"/>
			<point x="163" y="651"/>
			<point x="204" y="607"/>
			<point x="246" y="563" type="curve"/>
		</contour>
	</outline>
</glyph>
<glyph name="acute" format="1">
	<unicode hex="00B4"/>
	<advance width="400"/>
	<outline>
		<contour>
			<point x="145" y="572" type="curve"/>
			<point x="156" y="563" type="line"/>
			<point x="198" y="606"/>
			<point x="239" y="650"/>
			<point x="268" y="681" type="curve" smooth="yes"/>
			<point x="288" y="702"/>
			<point x="297" y="711"/>
			<point x="297" y="721" type="curve" smooth="yes"/>
			<point x="297" y="732"/>
			<point x="289" y="738"/>
			<point x="280" y="738" type="curve" smooth="yes"/>
			<point x="270" y="738"/>
			<point x="264" y="730"/>
			<point x="247" y="707" type="curve" smooth="yes"/>
			<point x="219" y="671"/>
			<point x="182" y="621"/>
		</contour>
	</outline>
</glyph>
<glyph name="onequarter" format="1">
	<unicode hex="00BC"/>
	<advance width="860"/>
	<outline>
		<contour>
			<point x="487" y="127" type="line"/>
			<point x="773" y="127" type="line"/>
			<point x="773" y="151" type="line"/>
			<point x="504" y="151" type="line"/>
			<point x="503" y="142" type="line"/>
			<point x="679" y="370" type="line"/>
			<point x="670" y="370" type="line"/>
			<point x="670" y="0" type="line"/>
			<point x="698" y="0" type="line"/>
			<point x="698" y="399" type="line"/>
			<point x="680" y="399" type="line"/>
			<point x="487" y="147" type="line"/>
		</contour>
		<component base="fraction" xOffset="385"/>
		<component base="one.sups" xOffset="11" yOffset="-172"/>
	</outline>
</glyph>
<glyph name="Agrave" format="1">
	<unicode hex="00C0"/>
	<advance width="653"/>
	<outline>
		<contour>
			<point x="366" y="741" type="line"/>
			<point x="330" y="771"/>
			<point x="294" y="802"/>
			<point x="263" y="828" type="curve" smooth="yes"/>
			<point x="235" y="852"/>
			<point x="226" y="859"/>
			<point x="216" y="859" type="curve" smooth="yes"/>
			<point x="206" y="859"/>
			<point x="198" y="852"/>
			<point x="198" y="842" type="curve" smooth="yes"/>
			<point x="198" y="830"/>
			<point x="211" y="823"/>
			<point x="244" y="801" type="curve" smooth="yes"/>
			<point x="280" y="778"/>
			<point x="319" y="753"/>
			<point x="358" y="730" type="curve"/>
		</contour>
		<component base="A"/>
	</outline>
</glyph>
<glyph name="Aacute" format="1">
	<unicode hex="00C1"/>
	<advance width="653"/>
	<outline>
		<contour>
			<point x="248" y="741" type="curve"/>
			<point x="256" y="730" type="line"/>
			<point x="295" y="754"/>
			<point x="334" y="779"/>
			<point x="371" y="802" type="curve" smooth="yes"/>
			<point x="404" y="822"/>
			<point x="416" y="830"/>
			<point x="416" y="842" type="curve" smooth="yes"/>
			<point x="416" y="852"/>
			<point x="408" y="859"/>
			<point x="398" y="859" type="curve" smooth="yes"/>
			<point x="388" y="859"/>
			<point x="379" y="852"/>
			<point x="351" y="829" type="curve" smooth="yes"/>
			<point x="320" y="803"/>
			<point x="284" y="772"/>
		</contour>
		<component base="A"/>
	</outline>
</glyph>
<glyph name="Atilde" format="1">
	<unicode hex="00C3"/>
	<advance width="653"/>
	<outline>
		<contour>
			<point x="152" y="753" type="curve"/>
			<point x="168" y="748" type="line"/>
			<point x="182" y="796"/>
			<point x="204" y="822"/>
			<point x="240" y="822" type="curve" smooth="yes"/>
			<point x="270" y="822"/>
			<point x="286" y="806"/>
			<point x="307" y="783" type="curve" smooth="yes"/>
			<point x="325" y="762"/>
			<point x="349" y="741"/>
			<point x="388" y="741" type="curve" smooth="yes"/>
			<point x="438" y="741"/>
			<point x="471" y="779"/>
			<point x="480" y="832" type="curve"/>
			<point x="464" y="837" type="line"/>
			<point x="450" y="789"/>
			<point x="428" y="764"/>
			<point x="392" y="764" type="curve" smooth="yes"/>
			<point x="362" y="764"/>
			<point x="346" y="779"/>
			<point x="325" y="802" type="curve" smooth="yes"/>
			<point x="306" y="824"/>
			<point x="281" y="845"/>
			<point x="243" y="845" type="curve" smooth="yes"/>
			<point x="194" y="845"/>
			<point x="161" y="807"/>
		</contour>
		<component base="A"/>
	</outline>
</glyph>
<glyph name="Aring" format="1">
	<unicode hex="00C5"/>
	<advance width="653"/>
	<outline>
		<contour>
			<point x="316" y="721" type="curve" smooth="yes"/>
			<point x="358" y="721"/>
			<point x="398" y="754"/>
			<point x="398" y="804" type="curve" smooth="yes"/>
			<point x="398" y="854"/>
			<point x="358" y="887"/>
			<point x="316" y="887" type="curve" smooth="yes"/>
			<point x="274" y="887"/>
			<point x="234" y="854"/>
			<point x="234" y="804" type="curve" smooth="yes"/>
			<point x="234" y="754"/>
			<point x="274" y="721"/>
		</contour>
		<contour>
			<point x="316" y="741" type="curve" smooth="yes"/>
			<point x="282" y="741"/>
			<point x="257" y="771"/>
			<point x="257" y="804" type="curve" smooth="yes"/>
			<point x="257" y="837"/>
			<point x="282" y="867"/>
			<point x="316" y="867" type="curve" smooth="yes"/>
			<point x="350" y="867"/>
			<point x="375" y="837"/>
			<point x="375" y="804" type="curve" smooth="yes"/>
			<point x="375" y="771"/>
			<point x="350" y="741"/>
		</contour>
		<component base="A"/>
	</outline>
</glyph>
<glyph name="Ccedilla" format="1">
	<unicode hex="00C7"/>
	<advance width="644"/>
	<outline>
		<contour>
			<point x="361" y="-77" type="line"/>
			<point x="427" y="-77"/>
			<point x="450" y="-102"/>
			<point x="450" y="-138" type="curve" smooth="yes"/>
			<point x="450" y="-172"/>
			<point x="429" y="-195"/>
			<point x="383" y="-195" type="curve" smooth="yes"/>
			<point x="367" y="-195"/>
			<point x="349" y="-192"/>
			<point x="329" y="-188" type="curve"/>
			<point x="325" y="-203" type="line"/>
			<point x="346" y="-210"/>
			<point x="365" y="-214"/>
			<point x="387" y="-214" type="curve" smooth="yes"/>
			<point x="447" y="-214"/>
			<point x="480" y="-182"/>
			<point x="480" y="-137" type="curve" smooth="yes"/>
			<point x="480" y="-93"/>
			<point x="441" y="-60"/>
			<point x="376" y="-59" type="curve"/>
			<point x="384" y="-74" type="line"/>
			<point x="394" y="0" type="line"/>
			<point x="374" y="0" type="line"/>
		</contour>
		<component base="C"/>
	</outline>
</glyph>
<glyph name="Egrave" format="1">
	<unicode hex="00C8"/>
	<advance width="601"/>
	<outline>
		<contour>
			<point x="364" y="741" type="line"/>
			<point x="328" y="771"/>
			<point x="292" y="802"/>
			<point x="261" y="828" type="curve" smooth="yes"/>
			<point x="233" y="852"/>
			<point x="224" y="859"/>
			<point x="214" y="859" type="curve" smooth="yes"/>
			<point x="204" y="859"/>
			<point x="196" y="852"/>
			<point x="196" y="842" type="curve" smooth="yes"/>
			<point x="196" y="830"/>
			<point x="209" y="823"/>
			<point x="242" y="801" type="curve" smooth="yes"/>
			<point x="278" y="778"/>
			<point x="317" y="753"/>
			<point x="356" y="730" type="curve"/>
		</contour>
		<component base="E"/>
	</outline>
</glyph>
<glyph name="Eacute" format="1">
	<unicode hex="00C9"/>
	<advance width="601"/>
	<outline>
		<contour>
			<point x="256" y="741" type="curve"/>
			<point x="264" y="730" type="line"/>
			<point x="303" y="754"/>
			<point x="342" y="779"/>
			<point x="379" y="802" type="curve" smooth="yes"/>
			<point x="412" y="822"/>
			<point x="424" y="830"/>
			<point x="424" y="842" type="curve" smooth="yes"/>
			<point x="424" y="852"/>
			<point x="416" y="859"/>
			<point x="406" y="859" type="curve" smooth="yes"/>
			<point x="396" y="859"/>
			<point x="387" y="852"/>
			<point x="359" y="829" type="curve" smooth="yes"/>
			<point x="328" y="803"/>
			<point x="292" y="772"/>
		</contour>
		<component base="E"/>
	</outline>
</glyph>
<glyph name="Ecircumflex" format="1">
	<unicode hex="00CA"/>
	<advance width="601"/>
	<outline>
		<contour>
			<point x="341" y="842" type="line"/>
			<point x="327" y="842" type="line"/>
			<point x="197" y="730" type="line"/>
			<point x="205" y="720" type="line"/>
			<point x="343" y="811" type="line"/>
			<point x="325" y="811" type="line"/>
			<point x="463" y="720" type="line"/>
			<point x="471" y="730" type="line"/>
		</contour>
		<component base="E"/>
	</outline>
</glyph>
<glyph name="Edieresis" format="1">
	<unicode hex="00CB"/>
	<advance width="601"/>
	<outline>
		<contour>
			<point x="229" y="756" type="curve" smooth="yes"/>
			<point x="246" y="756"/>
			<point x="261" y="768"/>
			<point x="261" y="788" type="curve" smooth="yes"/>
			<point x="261" y="808"/>
			<point x="246" y="820"/>
			<point x="229" y="820" type="curve" smooth="yes"/>
			<point x="213" y="820"/>
			<point x="197" y="808"/>
			<point x="197" y="788" type="curve" smooth="yes"/>
			<point x="197" y="768"/>
			<point x="213" y="756"/>
		</contour>
		<contour>
			<point x="435" y="756" type="curve" smooth="yes"/>
			<point x="451" y="756"/>
			<point x="467" y="768"/>
			<point x="467" y="788" type="curve" smooth="yes"/>
			<point x="467" y="808"/>
			<point x="451" y="820"/>
			<point x="435" y="820" type="curve" smooth="yes"/>
			<point x="418" y="820"/>
			<point x="403" y="808"/>
			<point x="403" y="788" type="curve" smooth="yes"/>
			<point x="403" y="768"/>
			<point x="418" y="756"/>
		</contour>
		<component base="E"/>
	</outline>
</glyph>
<glyph name="Igrave" format="1">
	<unicode hex="00CC"/>
	<advance width="364"/>
	<outline>
		<contour>
			<point x="236" y="741" type="line"/>
			<point x="200" y="771"/>
			<point x="164" y="802"/>
			<point x="133" y="828" type="curve" smooth="yes"/>
			<point x="105" y="852"/>
			<point x="96" y="859"/>
			<point x="86" y="859" type="curve" smooth="yes"/>
			<point x="76" y="859"/>
			<point x="68" y="852"/>
			<point x="68" y="842" type="curve" smooth="yes"/>
			<point x="68" y="830"/>
			<point x="81" y="823"/>
			<point x="114" y="801" type="curve" smooth="yes"/>
			<point x="150" y="778"/>
			<point x="189" y="753"/>
			<point x="228" y="730" type="curve"/>
		</contour>
		<component base="I"/>
	</outline>
</glyph>
<glyph name="Idieresis" format="1">
	<unicode hex="00CF"/>
	<advance width="364"/>
	<outline>
		<contour>
			<point x="79" y="756" type="curve" smooth="yes"/>
			<point x="96" y="756"/>
			<point x="111" y="768"/>
			<point x="111" y="788" type="curve" smooth="yes"/>
			<point x="111" y="808"/>
			<point x="96" y="820"/>
			<point x="79" y="820" type="curve" smooth="yes"/>
			<point x="63" y="820"/>
			<point x="47" y="808"/>
			<point x="47" y="788" type="curve" smooth="yes"/>
			<point x="47" y="768"/>
			<point x="63" y="756"/>
		</contour>
		<contour>
			<point x="285" y="756" type="curve" smooth="yes"/>
			<point x="301" y="756"/>
			<point x="317" y="768"/>
			<point x="317" y="788" type="curve" smooth="yes"/>
			<point x="317" y="808"/>
			<point x="301" y="820"/>
			<point x="285" y="820" type="curve" smooth="yes"/>
			<point x="268" y="820"/>
			<point x="253" y="808"/>
			<point x="253" y="788" type="curve" smooth="yes"/>
			<point x="253" y="768"/>
			<point x="268" y="756"/>
		</contour>
		<component base="I"/>
	</outline>
</glyph>
<glyph name="Ntilde" format="1">
	<unicode hex="00D1"/>
	<advance width="732"/>
	<outline>
		<contour>
			<point x="192" y="753" type="curve"/>
			<point x="208" y="748" type="line"/>
			<point x="222" y="796"/>
			<point x="244" y="822"/>
			<point x="280" y="822" type="curve" smooth="yes"/>
			<point x="310" y="822"/>
			<point x="326" y="806"/>
			<point x="347" y="783" type="curve" smooth="yes"/>
			<point x="365" y="762"/>
			<point x="389" y="741"/>
			<point x="428" y="741" type="curve" smooth="yes"/>
			<point x="478" y="741"/>
			<point x="511" y="779"/>
			<point x="520" y="832" type="curve"/>
			<point x="504" y="837" type="line"/>
			<point x="490" y="789"/>
			<point x="468" y="764"/>
			<point x="432" y="764" type="curve" smooth="yes"/>
			<point x="402" y="764"/>
			<point x="386" y="779"/>
			<point x="365" y="802" type="curve" smooth="yes"/>
			<point x="346" y="824"/>
			<point x="321" y="845"/>
			<point x="283" y="845" type="curve" smooth="yes"/>
			<point x="234" y="845"/>
			<point x="201" y="807"/>
		</contour>
		<component base="N"/>
	</outline>
</glyph>
<glyph name="Ograve" format="1">
	<unicode hex="00D2"/>
	<advance width="706"/>
	<outline>
		<contour>
			<point x="408" y="741" type="line"/>
			<point x="372" y="771"/>
			<point x="336" y="802"/>
			<point x="305" y="828" type="curve" smooth="yes"/>
			<point x="277" y="852"/>
			<point x="268" y="859"/>
			<point x="258" y="859" type="curve" smooth="yes"/>
			<point x="248" y="859"/>
			<point x="240" y="852"/>
			<point x="240" y="842" type="curve" smooth="yes"/>
			<point x="240" y="830"/>
			<point x="253" y="823"/>
			<point x="286" y="801" type="curve" smooth="yes"/>
			<point x="322" y="778"/>
			<point x="361" y="753"/>
			<point x="400" y="730" type="curve"/>
		</contour>
		<component base="O"/>
	</outline>
</glyph>
<glyph name="Ocircumflex" format="1">
	<unicode hex="00D4"/>
	<advance width="706"/>
	<outline>
		<contour>
			<point x="361" y="842" type="line"/>
			<point x="347" y="842" type="line"/>
			<point x="217" y="730" type="line"/>
			<point x="225" y="720" type="line"/>
			<point x="363" y="811" type="line"/>
			<point x="345" y="811" type="line"/>
			<point x="483" y="720" type="line"/>
			<point x="491" y="730" type="line"/>
		</contour>
		<component base="O"/>
	</outline>
</glyph>
<glyph name="Ugrave" format="1">
	<unicode hex="00D9"/>
	<advance width="737"/>
	<outline>
		<contour>
			<point x="414" y="741" type="line"/>
			<point x="378" y="771"/>
			<point x="342" y="802"/>
			<point x="311" y="828" type="curve" smooth="yes"/>
			<point x="283" y="852"/>
			<point x="274" y="859"/>
			<point x="264" y="859" type="curve" smooth="yes"/>
			<point x="254" y="859"/>
			<point x="246" y="852"/>
			<point x="246" y="842" type="curve" smooth="yes"/>
			<point x="246" y="830"/>
			<point x="259" y="823"/>
			<point x="292" y="801" type="curve" smooth="yes"/>
			<point x="328" y="778"/>
			<point x="367" y="753"/>
			<point x="406" y="730" type="curve"/>
		</contour>
		<component base="U"/>
	</outline>
</glyph>
<glyph name="Uacute" format="1">
	<unicode hex="00DA"/>
	<advance width="737"/>
	<outline>
		<contour>
			<point x="326" y="741" type="curve"/>
			<point x="334" y="730" type="line"/>
			<point x="373" y="754"/>
			<point x="412" y="779"/>
			<point x="449" y="802" type="curve" smooth="yes"/>
			<point x="482" y="822"/>
			<point x="494" y="830"/>
			<point x="494" y="842" type="curve" smooth="yes"/>
			<point x="494" y="852"/>
			<point x="486" y="859"/>
			<point x="476" y="859" type="curve" smooth="yes"/>
			<point x="466" y="859"/>
			<point x="457" y="852"/>
			<point x="429" y="829" type="curve" smooth="yes"/>
			<point x="398" y="803"/>
			<point x="362" y="772"/>
		</contour>
		<component base="U"/>
	</outline>
</glyph>
<glyph name="Udieresis" format="1">
	<unicode hex="00DC"/>
	<advance width="737"/>
	<outline>
		<contour>
			<point x="272" y="756" type="curve" smooth="yes"/>
			<point x="289" y="756"/>
			<point x="304" y="768"/>
			<point x="304" y="788" type="curve" smooth="yes"/>
			<point x="304" y="808"/>
			<point x="289" y="820"/>
			<point x="272" y="820" type="curve" smooth="yes"/>
			<point x="256" y="820"/>
			<point x="240" y="808"/>
			<point x="240" y="788" type="curve" smooth="yes"/>
			<point x="240" y="768"/>
			<point x="256" y="756"/>
		</contour>
		<contour>
			<point x="478" y="756" type="curve" smooth="yes"/>
			<point x="494" y="756"/>
			<point x="510" y="768"/>
			<point x="510" y="788" type="curve" smooth="yes"/>
			<point x="510" y="808"/>
			<point x="494" y="820"/>
			<point x="478" y="820" type="curve" smooth="yes"/>
			<point x="461" y="820"/>
			<point x="446" y="808"/>
			<point x="446" y="788" type="curve" smooth="yes"/>
			<point x="446" y="768"/>
			<point x="461" y="756"/>
		</contour>
		<component base="U"/>
	</outline>
</glyph>
<glyph name="agrave" format="1">
	<unicode hex="00E0"/>
	<advance width="505"/>
	<outline>
		<contour>
			<point x="309" y="572" type="line"/>
			<point x="273" y="621"/>
			<point x="236" y="671"/>
			<point x="208" y="707" type="curve" smooth="yes"/>
			<point x="190" y="730"/>
			<point x="184" y="738"/>
			<point x="174" y="738" type="curve" smooth="yes"/>
			<point x="165" y="738"/>
			<point x="157" y="732"/>
			<point x="157" y="721" type="curve" smooth="yes"/>
			<point x="157" y="711"/>
			<point x="166" y="702"/>
			<point x="186" y="681" type="curve" smooth="yes"/>
			<point x="215" y="651"/>
			<point x="256" y="607"/>
			<point x="298" y="563" type="curve"/>
		</contour>
		<component base="a"/>
	</outline>
</glyph>
<glyph name="aacute" format="1">
	<unicode hex="00E1"/>
	<advance width="505"/>
	<outline>
		<contour>
			<point x="197" y="572" type="curve"/>
			<point x="208" y="563" type="line"/>
			<point x="250" y="606"/>
			<point x="291" y="650"/>
			<point x="320" y="681" type="curve" smooth="yes"/>
			<point x="340" y="702"/>
			<point x="349" y="711"/>
			<point x="349" y="721" type="curve" smooth="yes"/>
			<point x="349" y="732"/>
			<point x="341" y="738"/>
			<point x="332" y="738" type="curve" smooth="yes"/>
			<point x="322" y="738"/>
			<point x="316" y="730"/>
			<point x="299" y="707" type="curve" smooth="yes"/>
			<point x="271" y="671"/>
			<point x="234" y="621"/>
		</contour>
		<component base="a"/>
	</outline>
</glyph>
<glyph name="acircumflex" format="1">
	<unicode hex="00E2"/>
	<advance width="505"/>
	<outline>
		<contour>
			<point x="351" y="553" type="line"/>
			<point x="362" y="562" type="line"/>
			<point x="249" y="719" type="line"/>
			<point x="235" y="719" type="line"/>
			<point x="122" y="562" type="line"/>
			<point x="133" y="553" type="line"/>
			<point x="249" y="688" type="line"/>
			<point x="235" y="688" type="line"/>
		</contour>
		<component base="a"/>
	</outline>
</glyph>
<glyph name="atilde" format="1">
	<unicode hex="00E3"/>
	<advance width="505"/>
	<outline>
		<contour>
			<point x="95" y="600" type="curve"/>
			<point x="110" y="595" type="line"/>
			<point x="122" y="643"/>
			<point x="142" y="669"/>
			<point x="175" y="669" type="curve" smooth="yes"/>
			<point x="202" y="669"/>
			<point x="215" y="653"/>
			<point x="234" y="630" type="curve" smooth="yes"/>
			<point x="250" y="609"/>
			<point x="273" y="588"/>
			<point x="308" y="588" type="curve" smooth="yes"/>
			<point x="353" y="588"/>
			<point x="383" y="626"/>
			<point x="391" y="679" type="curve"/>
			<point x="376" y="684" type="line"/>
			<point x="364" y="636"/>
			<point x="344" y="611"/>
			<point x="311" y="611" type="curve" smooth="yes"/>
			<point x="284" y="611"/>
			<point x="271" y="626"/>
			<point x="252" y="649" type="curve" smooth="yes"/>
			<point x="235" y="671"/>
			<point x="211" y="692"/>
			<point x="178" y="692" type="curve" smooth="yes"/>
			<point x="133" y="692"/>
			<point x="103" y="654"/>
		</contour>
		<component base="a"/>
	</outline>
</glyph>
<glyph name="adieresis" format="1">
	<unicode hex="00E4"/>
	<advance width="505"/>
	<outline>
		<contour>
			<point x="336" y="644" type="curve" smooth="yes"/>
			<point x="351" y="644"/>
			<point x="365" y="655"/>
			<point x="365" y="674" type="curve" smooth="yes"/>
			<point x="365" y="692"/>
			<point x="351" y="703"/>
			<point x="336" y="703" type="curve" smooth="yes"/>
			<point x="321" y="703"/>
			<point x="307" y="692"/>
			<point x="307" y="674" type="curve" smooth="yes"/>
			<point x="307" y="655"/>
			<point x="321" y="644"/>
		</contour>
		<contour>
			<point x="148" y="644" type="curve" smooth="yes"/>
			<point x="163" y="644"/>
			<point x="177" y="655"/>
			<point x="177" y="674" type="curve" smooth="yes"/>
			<point x="177" y="692"/>
			<point x="163" y="703"/>
			<point x="148" y="703" type="curve" smooth="yes"/>
			<point x="133" y="703"/>
			<point x="119" y="692"/>
			<point x="119" y="674" type="curve" smooth="yes"/>
			<point x="119" y="655"/>
			<point x="133" y="644"/>
		</contour>
		<component base="a"/>
	</outline>
</glyph>
<glyph name="egrave" format="1">
	<unicode hex="00E8"/>
	<advance width="491"/>
	<outline>
		<contour>
			<point x="312" y="572" type="line"/>
			<point x="276" y="621"/>
			<point x="239" y="671"/>
			<point x="211" y="707" type="curve" smooth="yes"/>
			<point x="193" y="730"/>
			<point x="187" y="738"/>
			<point x="177" y="738" type="curve" smooth="yes"/>
			<point x="168" y="738"/>
			<point x="160" y="732"/>
			<point x="160" y="721" type="curve" smooth="yes"/>
			<point x="160" y="711"/>
			<point x="169" y="702"/>
			<point x="189" y="681" type="curve" smooth="yes"/>
			<point x="218" y="651"/>
			<point x="259" y="607"/>
			<point x="301" y="563" type="curve"/>
		</contour>
		<component base="e"/>
	</outline>
</glyph>
<glyph name="ecircumflex" format="1">
	<unicode hex="00EA"/>
	<advance width="491"/>
	<outline>
		<contour>
			<point x="378" y="553" type="line"/>
			<point x="389" y="562" type="line"/>
			<point x="276" y="719" type="line"/>
			<point x="262" y="719" type="line"/>
			<point x="149" y="562" type="line"/>
			<point x="160" y="553" type="line"/>
			<point x="276" y="688" type="line"/>
			<point x="262" y="688" type="line"/>
		</contour>
		<component base="e"/>
	</outline>
</glyph>
<glyph name="edieresis" format="1">
	<unicode hex="00EB"/>
	<advance width="491"/>
	<outline>
		<contour>
			<point x="359" y="644" type="curve" smooth="yes"/>
			<point x="374" y="644"/>
			<point x="388" y="655"/>
			<point x="388" y="674" type="curve" smooth="yes"/>
			<point x="388" y="692"/>
			<point x="374" y="703"/>
			<point x="359" y="703" type="curve" smooth="yes"/>
			<point x="344" y="703"/>
			<point x="330" y="692"/>
			<point x="330" y="674" type="curve" smooth="yes"/>
			<point x="330" y="655"/>
			<point x="344" y="644"/>
		</contour>
		<contour>
			<point x="171" y="644" type="curve" smooth="yes"/>
			<point x="186" y="644"/>
			<point x="200" y="655"/>
			<point x="200" y="674" type="curve" smooth="yes"/>
			<point x="200" y="692"/>
			<point x="186" y="703"/>
			<point x="171" y="703" type="curve" smooth="yes"/>
			<point x="156" y="703"/>
			<point x="142" y="692"/>
			<point x="142" y="674" type="curve" smooth="yes"/>
			<point x="142" y="655"/>
			<point x="156" y="644"/>
		</contour>
		<component base="e"/>
	</outline>
</glyph>
<glyph name="igrave" format="1">
	<unicode hex="00EC"/>
	<advance width="303"/>
	<outline>
		<contour>
			<point x="174" y="572" type="line"/>
			<point x="138" y="621"/>
			<point x="101" y="671"/>
			<point x="73" y="707" type="curve" smooth="yes"/>
			<point x="55" y="730"/>
			<point x="49" y="738"/>
			<point x="39" y="738" type="curve" smooth="yes"/>
			<point x="30" y="738"/>
			<point x="22" y="732"/>
			<point x="22" y="721" type="curve" smooth="yes"/>
			<point x="22" y="711"/>
			<point x="31" y="702"/>
			<point x="51" y="681" type="curve" smooth="yes"/>
			<point x="80" y="651"/>
			<point x="121" y="607"/>
			<point x="163" y="563" type="curve"/>
		</contour>
		<component base="dotlessi"/>
	</outline>
</glyph>
<glyph name="iacute" format="1">
	<unicode hex="00ED"/>
	<advance width="303"/>
	<outline>
		<contour>
			<point x="132" y="572" type="curve"/>
			<point x="143" y="563" type="line"/>
			<point x="185" y="606"/>
			<point x="226" y="650"/>
			<point x="255" y="681" type="curve" smooth="yes"/>
			<point x="275" y="702"/>
			<point x="284" y="711"/>
			<point x="284" y="721" type="curve" smooth="yes"/>
			<point x="284" y="732"/>
			<point x="276" y="738"/>
			<point x="267" y="738" type="curve" smooth="yes"/>
			<point x="257" y="738"/>
			<point x="251" y="730"/>
			<point x="234" y="707" type="curve" smooth="yes"/>
			<point x="206" y="671"/>
			<point x="169" y="621"/>
		</contour>
		<component base="dotlessi"/>
	</outline>
</glyph>
<glyph name="icircumflex" format="1">
	<unicode hex="00EE"/>
	<advance width="303"/>
	<outline>
		<contour>
			<point x="247" y="553" type="line"/>
			<point x="258" y="562" type="line"/>
			<point x="145" y="719" type="line"/>
			<point x="131" y="719" type="line"/>
			<point x="18" y="562" type="line"/>
			<point x="29" y="553" type="line"/>
			<point x="145" y="688" type="line"/>
			<point x="131" y="688" type="line"/>
		</contour>
		<component base="dotlessi"/>
	</outline>
</glyph>
<glyph name="idieresis" format="1">
	<unicode hex="00EF"/>
	<advance width="303"/>
	<outline>
		<contour>
			<point x="232" y="644" type="curve" smooth="yes"/>
			<point x="247" y="644"/>
			<point x="261" y="655"/>
			<point x="261" y="674" type="curve" smooth="yes"/>
			<point x="261" y="692"/>
			<point x="247" y="703"/>
			<point x="232" y="703" type="curve" smooth="yes"/>
			<point x="217" y="703"/>
			<point x="203" y="692"/>
			<point x="203" y="674" type="curve" smooth="yes"/>
			<point x="203" y="655"/>
			<point x="217" y="644"/>
		</contour>
		<contour>
			<point x="44" y="644" type="curve" smooth="yes"/>
			<point x="59" y="644"/>
			<point x="73" y="655"/>
			<point x="73" y="674" type="curve" smooth="yes"/>
			<point x="73" y="692"/>
			<point x="59" y="703"/>
			<point x="44" y="703" type="curve" smooth="yes"/>
			<point x="29" y="703"/>
			<point x="15" y="692"/>
			<point x="15" y="674" type="curve" smooth="yes"/>
			<point x="15" y="655"/>
			<point x="29" y="644"/>
		</contour>
		<component base="dotlessi"/>
	</outline>
</glyph>
<glyph name="oacute" format="1">
	<unicode hex="00F3"/>
	<advance width="538"/>
	<outline>
		<contour>
			<point x="214" y="572" type="curve"/>
			<point x="225" y="563" type="line"/>
			<point x="267" y="606"/>
			<point x="308" y="650"/>
			<point x="337" y="681" type="curve" smooth="yes"/>
			<point x="357" y="702"/>
			<point x="366" y="711"/>
			<point x="366" y="721" type="curve" smooth="yes"/>
			<point x="366" y="732"/>
			<point x="358" y="738"/>
			<point x="349" y="738" type="curve" smooth="yes"/>
			<point x="339" y="738"/>
			<point x="333" y="730"/>
			<point x="316" y="707" type="curve" smooth="yes"/>
			<point x="288" y="671"/>
			<point x="251" y="621"/>
		</contour>
		<component base="o"/>
	</outline>
</glyph>
<glyph name="udieresis" format="1">
	<unicode hex="00FC"/>
	<advance width="604"/>
	<outline>
		<contour>
			<point x="392" y="644" type="curve" smooth="yes"/>
			<point x="407" y="644"/>
			<point x="421" y="655"/>
			<point x="421" y="674" type="curve" smooth="yes"/>
			<point x="421" y="692"/>
			<point x="407" y="703"/>
			<point x="392" y="703" type="curve" smooth="yes"/>
			<point x="377" y="703"/>
			<point x="363" y="692"/>
			<point x="363" y="674" type="curve" smooth="yes"/>
			<point x="363" y="655"/>
			<point x="377" y="644"/>
		</contour>
		<contour>
			<point x="204" y="644" type="curve" smooth="yes"/>
			<point x="219" y="644"/>
			<point x="233" y="655"/>
			<point x="233" y="674" type="curve" smooth="yes"/>
			<point x="233" y="692"/>
			<point x="219" y="703"/>
			<point x="204" y="703" type="curve" smooth="yes"/>
			<point x="189" y="703"/>
			<point x="175" y="692"/>
			<point x="175" y="674" type="curve" smooth="yes"/>
			<point x="175" y="655"/>
			<point x="189" y="644"/>
		</contour>
		<component base="u"/>
	</outline>
</glyph>
<glyph name="yacute" format="1">
	<unicode hex="00FD"/>
	<advance width="492"/>
	<outline>
		<contour>
			<point x="231" y="572" type="curve"/>
			<point x="242" y="563" type="line"/>
			<point x="284" y="606"/>
			<point x="325" y="650"/>
			<point x="354" y="681" type="curve" smooth="yes"/>
			<point x="374" y="702"/>
			<point x="383" y="711"/>
			<point x="383" y="721" type="curve" smooth="yes"/>
			<point x="383" y="732"/>
			<point x="375" y="738"/>
			<point x="366" y="738" type="curve" smooth="yes"/>
			<point x="356" y="738"/>
			<point x="350" y="730"/>
			<point x="333" y="707" type="curve" smooth="yes"/>
			<point x="305" y="671"/>
			<point x="268" y="621"/>
		</contour>
		<component base="y"/>
	</outline>
</glyph>
<glyph name="ydieresis" format="1">
	<unicode hex="00FF"/>
	<advance width="492"/>
	<outline>
		<contour>
			<point x="350" y="644" type="curve" smooth="yes"/>
			<point x="365" y="644"/>
			<point x="379" y="655"/>
			<point x="379" y="674" type="curve" smooth="yes"/>
			<point x="379" y="692"/>
			<point x="365" y="703"/>
			<point x="350" y="703" type="curve" smooth="yes"/>
			<point x="335" y="703"/>
			<point x="321" y="692"/>
			<point x="321" y="674" type="curve" smooth="yes"/>
			<point x="321" y="655"/>
			<point x="335" y="644"/>
		</contour>
		<contour>
			<point x="162" y="644" type="curve" smooth="yes"/>
			<point x="177" y="644"/>
			<point x="191" y="655"/>
			<point x="191" y="674" type="curve" smooth="yes"/>
			<point x="191" y="692"/>
			<point x="177" y="703"/>
			<point x="162" y="703" type="curve" smooth="yes"/>
			<point x="147" y="703"/>
			<point x="133" y="692"/>
			<point x="133" y="674" type="curve" smooth="yes"/>
			<point x="133" y="655"/>
			<point x="147" y="644"/>
		</contour>
		<component base="y"/>
	</outline>
</glyph>
<glyph name="Scaron" format="1">
	<unicode hex="0160"/>
	<advance width="515"/>
	<outline>
		<contour>
			<point x="168" y="865" type="line"/>
			<point x="157" y="854" type="line"/>
			<point x="268" y="740" type="line"/>
			<point x="288" y="740" type="line"/>
			<point x="399" y="854" type="line"/>
			<point x="388" y="865" type="line"/>
			<point x="269" y="764" type="line"/>
			<point x="287" y="764" type="line"/>
		</contour>
		<component base="S"/>
	</outline>
</glyph>
<glyph name="scaron" format="1">
	<unicode hex="0161"/>
	<advance width="426"/>
	<outline>
		<contour>
			<point x="110" y="716" type="line"/>
			<point x="100" y="706" type="line"/>
			<point x="218" y="570" type="line"/>
			<point x="238" y="570" type="line"/>
			<point x="356" y="706" type="line"/>
			<point x="346" y="716" type="line"/>
			<point x="219" y="599" type="line"/>
			<point x="237" y="599" type="line"/>
		</contour>
		<component base="s"/>
	</outline>
</glyph>
<glyph name="Ydieresis" format="1">
	<unicode hex="0178"/>
	<advance width="635"/>
	<outline>
		<contour>
			<point x="227" y="756" type="curve" smooth="yes"/>
			<point x="244" y="756"/>
			<point x="259" y="768"/>
			<point x="259" y="788" type="curve" smooth="yes"/>
			<point x="259" y="808"/>
			<point x="244" y="820"/>
			<point x="227" y="820" type="curve" smooth="yes"/>
			<point x="211" y="820"/>
			<point x="195" y="808"/>
			<point x="195" y="788" type="curve" smooth="yes"/>
			<point x="195" y="768"/>
			<point x="211" y="756"/>
		</contour>
		<contour>
			<point x="433" y="756" type="curve" smooth="yes"/>
			<point x="449" y="756"/>
			<point x="465" y="768"/>
			<point x="465" y="788" type="curve" smooth="yes"/>
			<point x="465" y="808"/>
			<point x="449" y="820"/>
			<point x="433" y="820" type="curve" smooth="yes"/>
			<point x="416" y="820"/>
			<point x="401" y="808"/>
			<point x="401" y="788" type="curve" smooth="yes"/>
			<point x="401" y="768"/>
			<point x="416" y="756"/>
		</contour>
		<component base="Y"/>
	</outline>
</glyph>
<glyph name="zcaron" format="1">
	<unicode hex="017E"/>
	<advance width="457"/>
	<outline>
		<contour>
			<point x="128" y="716" type="line"/>
			<point x="118" y="706" type="line"/>
			<point x="236" y="570" type="line"/>
			<point x="256" y="570" type="line"/>
			<point x="374" y="706" type="line"/>
			<point x="364" y="716" type="line"/>
			<point x="237" y="599" type="line"/>
			<point x="255" y="599" type="line"/>
		</contour>
		<component base="z"/>
	</outline>
</glyph>
<glyph name="circumflex" format="1">
	<unicode hex="02C6"/>
	<advance width="400"/>
	<outline>
		<contour>
			<point x="309" y="553" type="line"/>
			<point x="320" y="562" type="line"/>
			<point x="207" y="719" type="line"/>
			<point x="193" y="719" type="line"/>
			<point x="80" y="562" type="line"/>
			<point x="91" y="553" type="line"/>
			<point x="207" y="688" type="line"/>
			<point x="193" y="688" type="line"/>
		</contour>
	</outline>
</glyph>
